<svg width="662" height="83" viewBox="0 0 662 83" fill="none" xmlns="http://www.w3.org/2000/svg">
<path fill-rule="evenodd" clip-rule="evenodd" d="M574.748 57.9947C574.853 57.4949 575.727 57.6721 575.727 57.8973L574.644 75.4771C567.92 80.2656 559.738 82.3812 550.266 82.3812C527.698 82.3812 508.572 64.3065 508.572 41.5789C508.572 18.8513 527.698 0.33267 550.266 0.33267C556.372 0.33267 562.189 2.34453 567.431 4.33562C570.935 5.66888 573.118 3.64105 573.533 0.147452C573.557 -0.0617177 574.56 -0.0361688 574.601 0.147452L575.254 23.5233C575.299 23.7293 574.313 23.8953 574.275 23.7101C571.219 10.0934 560.613 2.25192 550.487 2.25192C532.341 2.25192 522.193 19.0637 522.193 41.5789C522.193 64.0925 533.885 80.462 552.031 80.462C561.494 80.462 571.8 72.1272 574.748 57.9947ZM64.8667 1.45021L64.9877 21.9615C65.0323 22.1675 64.0771 22.3224 64.0071 22.1484C58.9178 9.48485 55.2739 3.22415 39.5809 3.22415H37.8155V71.2121C37.8155 74.5572 38.1944 76.8884 39.893 78.4516C41.0598 79.5294 45.3627 80.0387 48.8458 80.0387C49.0337 80.0387 49.0559 81.265 48.8458 81.265H16.1434C15.9333 81.265 15.9556 80.0387 16.1434 80.0387C19.6265 80.0387 23.9278 79.5294 25.0962 78.4516C26.7964 76.8884 27.1721 74.5572 27.1721 71.2121V3.22415H25.4067C9.7137 3.22415 6.07143 9.48485 0.982118 22.1484C0.91208 22.3224 -0.043059 22.1675 0.00151192 21.9615L0.122499 1.45021H64.8667ZM84.3452 71.9865C84.3452 75.0585 83.9711 77.4903 82.4254 78.7852C81.1407 79.8614 78.5618 80.152 74.7285 80.152C74.5216 80.152 74.4961 81.2649 74.7285 81.2649H104.164C104.397 81.2649 104.371 80.152 104.164 80.152C100.331 80.152 97.7522 79.8614 96.4675 78.7852C94.9218 77.4903 94.5477 75.0585 94.5477 71.9865V27.7943C94.5477 24.7238 94.9218 22.2904 96.4675 20.9971C97.7522 19.9193 100.331 19.6319 104.164 19.6319C104.371 19.6319 104.397 18.519 104.164 18.519H74.7285C74.4961 18.519 74.5216 19.6319 74.7285 19.6319C78.5618 19.6319 81.1407 19.9193 82.4254 20.9971C83.9711 22.2904 84.3452 24.7238 84.3452 27.7943V71.9865ZM115.986 18.519H161.344L161.524 34.6027C161.568 34.8086 160.814 34.9715 160.764 34.7895C158.634 26.9273 155.081 20.1477 140.904 20.1477H135.011V48.6793H139.417C144.244 48.6793 146.74 47.8394 148.773 46.289C150.465 45.0005 151.8 42.0881 151.8 39.5429C151.8 39.3353 152.58 39.3098 152.8 39.5429V59.4475C152.58 59.6774 151.8 59.6535 151.8 59.4475C151.8 56.9023 150.465 53.9883 148.773 52.6982C146.74 51.1494 144.244 50.3095 139.417 50.3095H135.011V71.9865C135.011 75.0585 135.385 77.4903 136.93 78.7852C138.215 79.8614 140.796 80.152 144.627 80.152C144.834 80.152 144.86 81.2649 144.627 81.2649H115.986C115.774 81.2649 115.798 80.152 115.986 80.152C119.47 80.152 121.895 79.8614 123.063 78.7852C124.467 77.4903 124.808 75.0585 124.808 71.9865V27.7943C124.808 24.7238 124.467 22.2904 123.063 20.9971C121.895 19.9193 119.47 19.6319 115.986 19.6319C115.798 19.6319 115.774 18.519 115.986 18.519ZM215.518 18.519H170.161C169.951 18.519 169.974 19.6319 170.161 19.6319C173.646 19.6319 176.071 19.9193 177.239 20.9971C178.643 22.2904 178.984 24.7238 178.984 27.7943V71.9865C178.984 75.0585 178.643 77.4903 177.239 78.7852C176.071 79.8614 173.646 80.152 170.161 80.152C169.974 80.152 169.951 81.2649 170.161 81.2649H198.803C199.034 81.2649 199.01 80.152 198.803 80.152C194.97 80.152 192.391 79.8614 191.106 78.7852C189.56 77.4903 189.186 75.0585 189.186 71.9865V50.3095H193.591C198.419 50.3095 200.914 51.1494 202.948 52.6982C204.64 53.9883 205.976 56.9023 205.976 59.4475C205.976 59.6535 206.754 59.6774 206.976 59.4475V39.5429C206.754 39.3098 205.976 39.3353 205.976 39.5429C205.976 42.0881 204.64 45.0005 202.948 46.289C200.914 47.8394 198.419 48.6793 193.591 48.6793H189.186V20.1477H195.078C209.257 20.1477 212.812 26.9273 214.94 34.7895C214.989 34.9715 215.744 34.8086 215.701 34.6027L215.518 18.519ZM241.943 31.4125L232.701 56.4968H251.514L241.943 31.4125ZM267.581 71.9864C269.843 77.899 271.241 79.6107 276.276 80.152C276.462 80.1695 276.486 81.2649 276.276 81.2649H251.517C251.307 81.2649 251.329 80.1615 251.517 80.152C257.039 79.8167 259.341 77.0049 257.093 71.129L252.135 58.1285H232.101L227.425 70.8144C224.792 77.6978 227.522 79.8725 232.838 80.152C233.024 80.16 233.048 81.2649 232.838 81.2649H214.184C213.975 81.2649 214.001 80.1887 214.184 80.152C220.268 78.8858 222.35 77.99 225.095 70.8144L245.401 16.8983C245.401 16.6907 246.842 16.6668 246.842 16.8983L267.581 71.9864ZM341.755 18.519H320.68C320.47 18.519 320.494 19.6144 320.68 19.6319C325.407 20.0503 327.629 20.4782 328.861 22.597C330.267 25.016 330.829 29.1323 330.829 34.5739V64.9913L295.45 18.519H278.145C277.933 18.519 277.957 19.6319 278.145 19.6319C284.718 19.6319 287.849 23.3235 287.849 28.706V65.2068C287.849 70.65 287.508 74.7663 286.104 77.1822C284.888 79.277 283.662 79.7592 279.246 80.152C279.06 80.1664 279.036 81.2649 279.246 81.2649H300.1C300.31 81.2649 300.286 80.1664 300.1 80.152C295.374 79.7337 293.15 79.3026 291.918 77.1853C290.514 74.7663 289.952 70.65 289.952 65.2068V28.0178L331.599 81.7759C331.962 82.2501 332.932 82.207 332.932 81.7759V34.5739C332.932 29.1323 333.271 25.016 334.676 22.597C335.908 20.4782 337.029 20.0503 341.755 19.6319C341.942 19.6144 341.966 18.519 341.755 18.519ZM386.63 18.519H404.398C404.61 18.519 404.572 19.6191 404.386 19.6319C399.382 19.9944 397.244 21.2047 394.809 25.9357L380.709 51.9685V71.9865C380.709 75.0585 381.052 77.4903 382.457 78.7852C383.626 79.8614 386.049 80.152 389.535 80.152C389.72 80.152 389.745 81.2649 389.535 81.2649H361.688C361.476 81.2649 361.498 80.152 361.688 80.152C365.171 80.152 367.597 79.8614 368.764 78.7852C370.169 77.4903 370.508 75.0585 370.508 71.9865V53.8335L354.82 25.1438C352.786 21.1967 351.549 19.9944 346.409 19.6319C346.222 19.6191 346.184 18.519 346.396 18.519H372.037C372.247 18.519 372.237 19.6319 372.051 19.6319C366.333 19.6319 364.115 21.7571 366.161 25.725L379.721 50.1946L392.276 26.1082C394.26 21.9024 392.217 19.7996 386.615 19.6319C386.427 19.6271 386.418 18.519 386.63 18.519ZM616.376 19.1483C603.664 19.1483 597.165 32.1918 597.165 49.8914C597.165 67.5893 603.664 80.6344 616.376 80.6344C629.087 80.6344 635.585 67.5893 635.585 49.8914C635.585 32.1918 629.087 19.1483 616.376 19.1483ZM616.376 17.6394C633.72 17.6394 647.606 32.0241 647.606 49.8913C647.606 67.7585 633.72 82.1449 616.376 82.1449C599.031 82.1449 585.144 67.7585 585.144 49.8913C585.144 32.0241 599.031 17.6394 616.376 17.6394ZM655.876 69.5945C659.295 69.5945 662 72.3648 662 75.8696C662 79.3744 659.295 82.1447 655.876 82.1447C652.453 82.1447 649.75 79.3744 649.75 75.8696C649.75 72.3648 652.453 69.5945 655.876 69.5945ZM439.283 42.5846C432.502 45.8419 428.926 51.2404 428.926 59.101C428.926 69.7287 435.91 77.0017 444.619 77.0017C449.608 77.0017 454.843 74.134 459.606 69.6537L439.283 42.5846ZM458.315 21.3724C458.315 14.307 454.897 9.86176 449.096 9.86176C443.435 9.86176 439.887 12.8077 439.887 20.9621C439.887 25.2509 440.909 29.9468 446.159 37.4034C453.173 34.7688 458.315 27.6555 458.315 21.3724ZM464.704 43.7711H489.758C489.966 43.7711 489.927 44.8712 489.742 44.8856C481.437 45.4859 478.939 47.0172 476.636 50.3032C475.629 51.7432 474.607 53.244 473.563 54.7761C471.458 57.8666 469.267 61.0844 466.936 64.1866L472.993 71.9865C475.541 75.0586 477.897 77.4904 480.377 78.7853C482.437 79.8615 483.335 80.1521 486.821 80.1521C487.007 80.1521 487.031 81.265 486.821 81.265H468.383L460.924 71.4037C454.941 77.7283 447.956 82.3811 439.283 82.3811C427.497 82.3811 418.667 74.4439 418.667 63.302C418.667 53.404 427.795 44.8952 438.223 41.0615C432.978 33.212 431.518 29.4534 431.518 23.9447C431.518 15.5811 439.536 7.87223 448.774 7.87223C457.519 7.87223 463.869 14.4347 463.869 20.3218C463.869 28.6678 458.141 33.8826 447.421 39.056L465.75 62.6602C468.13 59.4268 470.255 55.855 471.995 52.173C474.353 47.18 470.765 44.8856 464.69 44.8856C464.502 44.8856 464.494 43.7711 464.704 43.7711Z" fill="black"/>
</svg>
