<svg xmlns="http://www.w3.org/2000/svg" width="1133.7938mm" height="500mm" viewBox="0 0 1133.7938 500"><path d="M0 0h-33.375c-4.111 0-7.445-3.341-7.445-7.454 0-4.111 3.334-7.46 7.445-7.46H0c4.098 0 7.443 3.349 7.443 7.46C7.443-3.341 4.098 0 0 0" style="fill:#46b035;fill-opacity:1;fill-rule:nonzero;stroke:none" transform="matrix(3.32406 0 0 -3.32406 1109.053 179.633)"/><path d="M0 0c-4.108 0-7.448-3.341-7.448-7.451v-19.906A7.452 7.452 0 0 1 0-34.805a7.451 7.451 0 0 1 7.445 7.448v19.906C7.445-3.341 4.106 0 0 0" style="fill:#009fde;fill-opacity:1;fill-rule:nonzero;stroke:none" transform="matrix(3.32406 0 0 -3.32406 961.375 243.845)"/><path d="M0 0h-33.373c-4.109 0-7.445-3.342-7.445-7.457 0-4.109 3.336-7.459 7.445-7.459H0c4.101 0 7.443 3.35 7.443 7.459C7.443-3.342 4.101 0 0 0" style="fill:#009fde;fill-opacity:1;fill-rule:nonzero;stroke:none" transform="matrix(3.32406 0 0 -3.32406 135.682 267.614)"/><path d="M0 0c-4.109 0-7.449-3.342-7.449-7.45v-19.907c0-4.111 3.34-7.451 7.449-7.451 4.11 0 7.443 3.34 7.443 7.451V-7.45C7.443-3.342 4.11 0 0 0" style="fill:#f6ab00;fill-opacity:1;fill-rule:nonzero;stroke:none" transform="matrix(3.32406 0 0 -3.32406 172.433 331.832)"/><path d="M0 0h-91.357v11.512c0 2.431-1.971 4.4-4.394 4.4h-71.658v12.343a7.43 7.43 0 0 1-7.431 7.43 7.431 7.431 0 0 1-7.432-7.43V12.504c0-6.317 5.139-11.457 11.457-11.457h64.594v-4.451c0-6.316 5.142-11.457 11.459-11.457H0A7.433 7.433 0 0 1 7.433-7.43C7.433-3.326 4.103 0 0 0" style="fill:#003994;fill-opacity:1;fill-rule:nonzero;stroke:none" transform="matrix(3.32406 0 0 -3.32406 960.778 450.601)"/><path d="M0 0c-4.109 0-7.449-3.342-7.449-7.452v-19.905c0-4.113 3.34-7.45 7.449-7.45 4.11 0 7.443 3.337 7.443 7.45v19.905C7.443-3.342 4.11 0 0 0" style="fill:#b9589d;fill-opacity:1;fill-rule:nonzero;stroke:none" transform="matrix(3.32406 0 0 -3.32406 172.433 137.26)"/><path d="M0 0h-40.265v11.64h16.911a7.43 7.43 0 1 1 0 14.86h-41.409v17.542a7.43 7.43 0 0 1-7.432 7.431 7.431 7.431 0 0 1-7.431-7.431V23.096c0-6.317 5.141-11.456 11.456-11.456h12.992V0h-60.82c-4.109 0-7.444-3.342-7.444-7.457 0-4.109 3.335-7.459 7.444-7.459l119.775.007c2.06 0 3.686 1.31 4.537 2.164L21.916.832l33.512-33.388a7.4 7.4 0 0 1 5.221-2.166c.958 0 1.919.196 2.842.571 2.755 1.149 4.557 3.842 4.603 6.829v38.88h31.139c4.109 0 7.446 3.34 7.446 7.456 0 4.108-3.337 7.46-7.446 7.46l-31.139-.006v46.583c0 4.109-3.335 7.457-7.448 7.457s-7.449-3.348-7.449-7.457V-9.505L32.64 11.026c-1.947 1.967-3.181 4.334-3.181 6.926l-.008-.004v13.004c0 4.117-3.348 7.454-7.452 7.454a7.457 7.457 0 0 1-7.454-7.454v-13c0-2.598-1.241-4.641-3.194-6.605z" style="fill:#003994;fill-opacity:1;fill-rule:nonzero;stroke:none" transform="matrix(3.32406 0 0 -3.32406 594.758 267.614)"/><path d="M0 0c4.11 0 7.45 3.343 7.45 7.452v19.904A7.455 7.455 0 0 1 0 34.807c-4.107 0-7.443-3.338-7.443-7.451V7.452C-7.443 3.343-4.107 0 0 0" style="fill:#f08300;fill-opacity:1;fill-rule:nonzero;stroke:none" transform="matrix(3.32406 0 0 -3.32406 961.36 164.97)"/></svg>